<svg xmlns="http://www.w3.org/2000/svg" xmlns:xlink="http://www.w3.org/1999/xlink" version="1.1" viewBox="0 0 64 64" style="width: 200px; height: 200px; transform-origin: 50% 50%; transform: scaleX(-1) scaleY(1) rotate(0deg);" xml:space="preserve" preserveAspectRatio="xMidYMid meet"><g id="flag" fill="#B26AFB" style="fill:#B26AFB;stroke:none" stroke="none" class=""/><g id="dwarf" fill="#B26AFB" style="fill:#B26AFB;stroke:none" stroke="none" class=""/><g id="weapon" fill="#B26AFB" style="fill:#B26AFB;stroke:none" stroke="none" class=""/><g id="magic_potion" fill="#B26AFB" style="fill:#B26AFB;stroke:none" stroke="none" class=""/><g id="magic_fire" fill="#B26AFB" style="fill:#B26AFB;stroke:none" stroke="none" class=""/><g id="elf" fill="#B26AFB" style="fill:#B26AFB;stroke:none" stroke="none" class=""/><g id="crown" fill="#B26AFB" style="fill:#B26AFB;stroke:none" stroke="none" class=""/><g id="tower" fill="#B26AFB" style="fill:#B26AFB;stroke:none" stroke="none" class=""/><g id="magic_broom" fill="#B26AFB" style="fill:#B26AFB;stroke:none" stroke="none" class=""/><g id="knight" fill="#B26AFB" style="fill:#B26AFB;stroke:none" stroke="none" class=""/><g id="magic_book" fill="#B26AFB" style="fill:#B26AFB;stroke:none" stroke="none" class=""/><g id="unicorn" fill="#B26AFB" style="fill:#B26AFB;stroke:none" stroke="none" class=""><g fill="#B26AFB" style="fill:#B26AFB;stroke:none" stroke="none" class=""><path d="M60.9,60.3C61,60.3,61,60.2,60.9,60.3c0-0.1,0-0.2,0-0.2c0-0.1,0-0.1,0-0.1c0-0.1,0-0.1,0-0.2c0,0,0-0.1,0-0.1    c0-0.1-0.1-0.2-0.2-0.2c0,0,0,0,0,0c-2.8-2.8-3.5-7.3-3.7-9.3H60c0.4,0,0.8-0.3,0.9-0.7s0-0.8-0.3-1.1c-3.1-2.5-4.6-8.1-5.2-11.5    C57.5,38,59.9,38,60,38c0.5,0,0.9-0.3,1-0.8c0.1-0.4-0.1-0.9-0.4-1.1c-0.1-0.1-1.7-1.6-2.5-9.3c-0.7-6.3-5.1-9.5-8.1-10.9    c3.2-1.7,4-4.6,4-4.8c0.1-0.3,0-0.7-0.3-0.9c-0.2-0.2-0.6-0.3-0.9-0.3c0,0-3.9,0.9-9.6,0C38,9.1,34.2,10.4,33,10.9    c-1.2-3.1-3.1-5.4-3.2-5.6C29.6,5.1,29.3,5,29,5c-0.3,0-0.6,0.1-0.8,0.4c-0.8,1-1.5,2.1-2.1,3.1c-1.4-1.6-3.7-2.4-3.8-2.4    c-0.5-0.2-1,0.1-1.2,0.5c-1.6,3.2-1.4,5.9-0.7,7.8L7.8,3.6C7.1,3,6.1,2.8,5.3,3.2c-0.6,0.3-1,0.8-1.2,1.4C3.9,5.3,4,6,4.4,6.5    l10.5,15.9c-3,2.8-3.8,6.3-4.4,9.2c-0.4,1.6-0.7,2.9-1.2,3.8c-0.6,0.9-1.5,1.9-2.4,2.9C4.9,40.4,3,42.6,3,45c0,3.4,3.3,7,5,7    c0.1,0,0.2,0,0.3,0C8.8,53,10,55,12,55c1.6,0,8.3-5,13.5-8.9c0.8,1.6,3.1,6.7,1.6,13.7c-0.1,0.3,0,0.6,0.2,0.8    c0.2,0.2,0.5,0.4,0.8,0.4h32c0.1,0,0.2,0,0.4-0.1c0,0,0.1,0,0.1,0c0.1,0,0.2-0.1,0.2-0.1c0,0,0,0,0,0c0,0,0-0.1,0-0.1    c0.1-0.1,0.1-0.1,0.1-0.2C60.9,60.4,60.9,60.3,60.9,60.3z M42.8,12c3.7,0.6,6.6,0.5,8.4,0.3c-0.7,1-2.1,2.3-4.4,2.7    c-0.5,0.1-0.8,0.5-0.8,1s0.3,0.9,0.8,1c0.1,0,8.3,1.9,9.2,10.1c0.5,4.3,1.2,7,1.9,8.5c-1-0.3-2.3-1-3.1-2.2    c-0.3-0.4-0.7-0.5-1.2-0.4c-0.4,0.2-0.7,0.6-0.7,1c0,0.4,0.9,9,4.7,13.9H56c-0.6,0-1,0.4-1,1c0,0.1,0,1.8,0.4,3.9    c-1.4-3.8-2.1-8.6-2.7-13.4c-0.7-4.8-1.3-9.8-2.8-13.8c-3.5-9.7-13.1-11.3-16-11.6c-0.1-0.4-0.2-0.8-0.3-1.2    C34.4,12.5,37.9,11.2,42.8,12z M22.5,8.3c0.9,0.4,2.1,1.2,2.6,2.2c0,0,0,0,0,0c-0.8,2-1.1,3.9-0.9,5.7c0,0,0,0,0,0.1    c-0.1,0.1-0.2,0.1-0.4,0.2c0-0.1-0.1-0.1-0.1-0.2C23.7,16.3,20.6,13.1,22.5,8.3z M8.9,9.8L11.1,9l5.2,4.5l-4,1.3L8.9,9.8z M6,5.2    C6,5.2,6.1,5.1,6.2,5c0.1-0.1,0.2,0,0.3,0l2.8,2.4L7.8,8L6,5.4C6,5.3,6,5.3,6,5.2z M13.4,16.6l4.7-1.6l3.4,2.9    c-1.2,0.8-2.9,1.8-5,3.2c0,0,0,0,0,0L13.4,16.6z M29.2,59c1.3-7.5-1.3-12.8-2.2-14.2c1-0.8,1.9-1.5,2.6-2c0.2-0.1,0.3-0.4,0.4-0.6    l2-10c0.1-0.5-0.2-1.1-0.8-1.2c-0.5-0.1-1.1,0.2-1.2,0.8l-1.9,9.6C21.1,47,13.3,52.8,12,53c-0.9,0-1.7-1.3-2-2.1    c1-0.8,2.5-2,4.7-4.2c0.4-0.4,0.4-1,0-1.4s-1-0.4-1.4,0c-2,2-4.5,4.3-5.3,4.7c-0.8-0.4-3-2.7-3-5c0-1.6,1.7-3.5,3.3-5.3    c0.9-1,1.8-2.1,2.5-3.1c0.8-1.2,1.1-2.7,1.5-4.5c0.7-3.2,1.6-6.8,5.2-9.3c4-2.7,6.2-4,7.2-4.6c0.9,2.3,2.5,3.5,2.6,3.6    c0.2,0.1,0.4,0.2,0.6,0.2c0.3,0,0.6-0.1,0.8-0.4c0.3-0.4,0.2-1.1-0.2-1.4c0,0-2-1.4-2.3-4.3c-0.3-2.5,0.6-5.2,2.8-8.3    c1,1.4,2.6,4.2,3,7.2c0,0,0,0.1,0,0.1c0,0.1,0,0.3,0.1,0.4c0.1,0.8,0.1,1.6-0.1,2.4c-0.1,0.5,0.3,1.1,0.8,1.2    c0.5,0.1,1.1-0.3,1.2-0.8c0.1-0.7,0.1-1.4,0.1-2.1c3,0.3,10.9,2,13.9,10.3c1.4,3.8,2,8.7,2.7,13.4c1,7.5,2.1,15.3,6.1,19.3H29.2z" fill="#B26AFB" style="fill:#B26AFB;stroke:none" stroke="none" class=""/><path d="M19,26c-1.7,0-3,1.3-3,3s1.3,3,3,3s3-1.3,3-3S20.7,26,19,26z M19,30c-0.6,0-1-0.4-1-1s0.4-1,1-1s1,0.4,1,1S19.6,30,19,30z    " fill="#B26AFB" style="fill:#B26AFB;stroke:none" stroke="none" class=""/></g></g><g id="wizard" fill="#B26AFB" style="fill:#B26AFB;stroke:none" stroke="none" class=""/><g id="witch" fill="#B26AFB" style="fill:#B26AFB;stroke:none" stroke="none" class=""/><g id="magic_wand" fill="#B26AFB" style="fill:#B26AFB;stroke:none" stroke="none" class=""/><g id="queen" fill="#B26AFB" style="fill:#B26AFB;stroke:none" stroke="none" class=""/><g id="forest" fill="#B26AFB" style="fill:#B26AFB;stroke:none" stroke="none" class=""/><g id="home_tree" fill="#B26AFB" style="fill:#B26AFB;stroke:none" stroke="none" class=""/><g id="king" fill="#B26AFB" style="fill:#B26AFB;stroke:none" stroke="none" class=""/><g id="castle" fill="#B26AFB" style="fill:#B26AFB;stroke:none" stroke="none" class=""/></svg>